<?xml version="1.0" encoding="UTF-8"?>
<svg width="140px" height="140px" viewBox="0 0 140 140" version="1.1" xmlns="http://www.w3.org/2000/svg" xmlns:xlink="http://www.w3.org/1999/xlink">
    <!-- Generator: Sketch 42 (36781) - http://www.bohemiancoding.com/sketch -->
    <title>in</title>
    <desc>Created with Sketch.</desc>
    <defs></defs>
    <g id="Page-1" stroke="none" stroke-width="1" fill="none" fill-rule="evenodd">
        <g id="in" fill-rule="nonzero" fill="#000000">
            <path d="M124.294118,68.2073171 L124.294118,23.8565854 C124.294118,21.7266521 126.019138,20 128.147059,20 C130.274979,20 132,21.7266521 132,23.8565854 L132,124.127805 C132,126.257738 130.274979,127.98439 128.147059,127.98439 C126.019138,127.98439 124.294118,126.257738 124.294118,124.127805 L124.294118,75.9204878 L97.3235294,75.9204878 C95.1956088,75.9204878 93.4705882,74.1938357 93.4705882,72.0639024 C93.4705882,69.9339692 95.1956088,68.2073171 97.3235294,68.2073171 L124.294118,68.2073171 L124.294118,68.2073171 Z" id="Shape" transform="translate(112.735294, 73.992195) scale(-1, 1) translate(-112.735294, -73.992195) "></path>
            <path d="M124.294118,45.0678049 L124.294118,56.637561 L112.735294,56.637561 L112.735294,45.0678049 L124.294118,45.0678049 Z M105.029412,41.2112195 L105.029412,60.4941463 C105.029412,62.6240796 106.754432,64.3507317 108.882353,64.3507317 L128.147059,64.3507317 C130.274979,64.3507317 132,62.6240796 132,60.4941463 L132,41.2112195 C132,39.0812862 130.274979,37.3546341 128.147059,37.3546341 L108.882353,37.3546341 C106.754432,37.3546341 105.029412,39.0812862 105.029412,41.2112195 Z" id="Shape" transform="translate(118.514706, 50.852683) scale(-1, 1) translate(-118.514706, -50.852683) "></path>
            <path d="M27.9705882,124.127805 C27.9705882,116.673038 21.9330163,110.629756 14.4852941,110.629756 C7.03757192,110.629756 1,116.673038 1,124.127805 C1,131.582571 7.03757192,137.625854 14.4852941,137.625854 C21.9330163,137.625854 27.9705882,131.582571 27.9705882,124.127805 Z M8.70588235,124.127805 C8.70588235,120.932905 11.2934132,118.342927 14.4852941,118.342927 C17.677175,118.342927 20.2647059,120.932905 20.2647059,124.127805 C20.2647059,127.322705 17.677175,129.912683 14.4852941,129.912683 C11.2934132,129.912683 8.70588235,127.322705 8.70588235,124.127805 Z" id="Shape" transform="translate(14.485294, 124.127805) scale(-1, 1) translate(-14.485294, -124.127805) "></path>
            <path d="M35.6764706,70.1356098 C35.6764706,62.6808434 29.6388987,56.637561 22.1911765,56.637561 C14.7434543,56.637561 8.70588235,62.6808434 8.70588235,70.1356098 C8.70588235,77.5903762 14.7434543,83.6336585 22.1911765,83.6336585 C29.6388987,83.6336585 35.6764706,77.5903762 35.6764706,70.1356098 Z M16.4117647,70.1356098 C16.4117647,66.9407099 18.9992956,64.3507317 22.1911765,64.3507317 C25.3830574,64.3507317 27.9705882,66.9407099 27.9705882,70.1356098 C27.9705882,73.3305096 25.3830574,75.9204878 22.1911765,75.9204878 C18.9992956,75.9204878 16.4117647,73.3305096 16.4117647,70.1356098 Z" id="Shape" transform="translate(22.191176, 70.135610) scale(-1, 1) translate(-22.191176, -70.135610) "></path>
            <path d="M89.6176471,118.342927 C89.6176471,107.69326 80.9925444,99.06 70.3529412,99.06 C59.7133379,99.06 51.0882353,107.69326 51.0882353,118.342927 C51.0882353,128.992593 59.7133379,137.625854 70.3529412,137.625854 C80.9925444,137.625854 89.6176471,128.992593 89.6176471,118.342927 Z M58.7941176,118.342927 C58.7941176,111.953127 63.9691792,106.773171 70.3529412,106.773171 C76.7367031,106.773171 81.9117647,111.953127 81.9117647,118.342927 C81.9117647,124.732727 76.7367031,129.912683 70.3529412,129.912683 C63.9691792,129.912683 58.7941176,124.732727 58.7941176,118.342927 Z" id="Shape" transform="translate(70.352941, 118.342927) scale(-1, 1) translate(-70.352941, -118.342927) "></path>
            <path d="M8.70588235,95.2034146 L81.9117647,95.2034146 L81.9117647,124.127805 C81.9117647,126.257738 83.6367852,127.98439 85.7647059,127.98439 C87.8926265,127.98439 89.6176471,126.257738 89.6176471,124.127805 L89.6176471,91.3468293 C89.6176471,89.216896 87.8926265,87.4902439 85.7647059,87.4902439 L4.85294118,87.4902439 C2.72502052,87.4902439 1,89.216896 1,91.3468293 L1,116.414634 C1,118.544567 2.72502052,120.27122 4.85294118,120.27122 C6.98086183,120.27122 8.70588235,118.544567 8.70588235,116.414634 L8.70588235,95.2034146 Z" id="Shape" transform="translate(45.308824, 107.737317) scale(-1, 1) translate(-45.308824, -107.737317) "></path>
            <path d="M27.9705882,120.27122 C25.8426676,120.27122 24.1176471,121.997872 24.1176471,124.127805 C24.1176471,126.257738 25.8426676,127.98439 27.9705882,127.98439 L54.9411765,127.98439 C57.0690971,127.98439 58.7941176,126.257738 58.7941176,124.127805 C58.7941176,121.997872 57.0690971,120.27122 54.9411765,120.27122 L27.9705882,120.27122 Z" id="Shape" transform="translate(41.455882, 124.127805) scale(-1, 1) translate(-41.455882, -124.127805) "></path>
            <path d="M47.2589067,82.4706381 L61.2985354,50.8526829 L81.9117647,50.8526829 L81.9117647,89.4185366 C81.9117647,91.5484699 83.6367852,93.275122 85.7647059,93.275122 C87.8926265,93.275122 89.6176471,91.5484699 89.6176471,89.4185366 L89.6176471,46.9960976 C89.6176471,44.8661643 87.8926265,43.1395122 85.7647059,43.1395122 L58.7941176,43.1395122 C57.2714788,43.1395122 55.8916578,44.0370688 55.2732555,45.42979 L39.8614908,80.1390583 C39.6425428,80.6321574 39.5294118,81.1657588 39.5294118,81.7053659 L39.5294118,91.3468293 C39.5294118,93.4767626 41.2544323,95.2034146 43.3823529,95.2034146 C45.5102736,95.2034146 47.2352941,93.4767626 47.2352941,91.3468293 L47.2589067,82.4706381 Z" id="Shape" transform="translate(64.573529, 69.171463) scale(-1, 1) translate(-64.573529, -69.171463) "></path>
        </g>
    </g>
</svg>