<?xml version="1.0" encoding="UTF-8"?>
<svg width="140px" height="140px" viewBox="0 0 140 140" version="1.1" xmlns="http://www.w3.org/2000/svg" xmlns:xlink="http://www.w3.org/1999/xlink">
    <!-- Generator: Sketch 42 (36781) - http://www.bohemiancoding.com/sketch -->
    <title>inside</title>
    <desc>Created with Sketch.</desc>
    <defs>
        <path d="M59.156874,19.9503498 L2.12566711,49.7884697 C1.25389664,50.2504859 0.675788267,51.2187736 0.682913366,52.2043402 L0.682913366,136.251203 C0.683055401,137.671227 1.97674913,138.963624 3.39868512,138.96376 L117.461099,138.96376 C118.883035,138.963624 120.176728,137.671227 120.176871,136.251203 L120.176871,52.2043402 C120.183932,51.2187736 119.605888,50.2504859 118.734117,49.7884697 L61.7029101,19.9503498 C60.7387351,19.4976394 60.0316431,19.3983343 59.156874,19.9503498 Z M60.4298921,25.4178462 L114.745327,53.8149206 L114.745327,133.538647 L91.6612673,133.538647 L91.6612673,73.8624074 C91.6611247,72.4421535 90.3674315,71.1499866 88.9454955,71.149851 L31.659685,71.149851 C30.324655,71.275578 29.192735,72.5230555 29.1985168,73.8624074 L29.1985168,133.538647 L6.11445688,133.538647 L6.11445688,53.8149206 L60.4298921,25.4178462 Z M49.3122014,52.1619565 C47.8900319,52.2282785 46.6570674,53.5811931 46.7237315,55.001664 C46.7903901,56.4221348 48.1446626,57.6539338 49.566805,57.5870692 L71.2929791,57.5870692 C72.727739,57.6072778 74.0511848,56.3077192 74.0511848,54.8745129 C74.0511848,53.4413066 72.727739,52.1417209 71.2929791,52.1619565 L49.3122014,52.1619565 Z M34.6300603,76.5749637 L86.2297238,76.5749637 L86.2297238,87.4251891 L34.6300603,87.4251891 L34.6300603,76.5749637 Z M34.6300603,92.8503018 L86.2297238,92.8503018 L86.2297238,102.344249 L34.6300603,102.344249 L34.6300603,92.8503018 Z M34.6300603,107.769362 L86.2297238,107.769362 L86.2297238,117.263309 L34.6300603,117.263309 L34.6300603,107.769362 Z M34.6300603,122.688422 L86.2297238,122.688422 L86.2297238,133.538647 L34.6300603,133.538647 L34.6300603,122.688422 Z" id="path-1"></path>
        <mask id="mask-2" maskContentUnits="userSpaceOnUse" maskUnits="objectBoundingBox" x="-1" y="-1" width="121.494086" height="121.391098">
            <rect x="-0.31715176" y="18.5726619" width="121.494086" height="121.391098" fill="white"></rect>
            <use xlink:href="#path-1" fill="black"></use>
        </mask>
    </defs>
    <g id="Page-1" stroke="none" stroke-width="1" fill="none" fill-rule="evenodd">
        <g id="inside" fill-rule="nonzero">
            <g id="Shape">
                <use fill="#000000" fill-rule="evenodd" xlink:href="#path-1"></use>
                <use stroke="#000000" mask="url(#mask-2)" stroke-width="2" xlink:href="#path-1"></use>
            </g>
        </g>
    </g>
</svg>