<?xml version="1.0" encoding="UTF-8"?>
<svg width="140px" height="140px" viewBox="0 0 140 140" version="1.1" xmlns="http://www.w3.org/2000/svg" xmlns:xlink="http://www.w3.org/1999/xlink">
    <!-- Generator: Sketch 42 (36781) - http://www.bohemiancoding.com/sketch -->
    <title>out</title>
    <desc>Created with Sketch.</desc>
    <defs></defs>
    <g id="Page-1" stroke="none" stroke-width="1" fill="none" fill-rule="evenodd">
        <g id="out" fill-rule="nonzero" fill="#000000">
            <path d="M121.047945,122.990497 C121.047945,114.5667 114.299747,107.737864 105.975423,107.737864 C97.6510989,107.737864 90.9029009,114.5667 90.9029009,122.990497 C90.9029009,131.414294 97.6510989,138.24313 105.975423,138.24313 C114.299747,138.24313 121.047945,131.414294 121.047945,122.990497 Z M98.439162,122.990497 C98.439162,118.778599 101.813261,115.364181 105.975423,115.364181 C110.137585,115.364181 113.511684,118.778599 113.511684,122.990497 C113.511684,127.202395 110.137585,130.616814 105.975423,130.616814 C101.813261,130.616814 98.439162,127.202395 98.439162,122.990497 Z" id="Shape"></path>
            <path d="M45.9452055,122.990497 C45.9452055,114.5667 39.1970075,107.737864 30.8726833,107.737864 C22.5483592,107.737864 15.8001612,114.5667 15.8001612,122.990497 C15.8001612,131.414294 22.5483592,138.24313 30.8726833,138.24313 C39.1970075,138.24313 45.9452055,131.414294 45.9452055,122.990497 Z M23.3364222,122.990497 C23.3364222,118.778599 26.7105213,115.364181 30.8726833,115.364181 C35.0348454,115.364181 38.4089444,118.778599 38.4089444,122.990497 C38.4089444,127.202395 35.0348454,130.616814 30.8726833,130.616814 C26.7105213,130.616814 23.3364222,127.202395 23.3364222,122.990497 Z" id="Shape"></path>
            <path d="M8.41982272,120.911742 L8.41982272,103.75253 L121.463739,103.75253 L121.463739,117.098584 L121.463739,120.911742 L119.579674,120.911742 C117.498593,120.911742 115.811543,122.618951 115.811543,124.7249 C115.811543,126.83085 117.498593,128.538059 119.579674,128.538059 L125.231869,128.538059 C127.31295,128.538059 129,126.83085 129,124.7249 L129,99.9393718 C129,97.8334227 127.31295,96.1262136 125.231869,96.1262136 L4.65169218,96.1262136 C2.57061115,96.1262136 0.883561644,97.8334227 0.883561644,99.9393718 L0.883561644,124.7249 C0.883561644,126.83085 2.57061115,128.538059 4.65169218,128.538059 L17.8401491,128.538059 C19.9212301,128.538059 21.6082796,126.83085 21.6082796,124.7249 C21.6082796,122.618951 19.9212301,120.911742 17.8401491,120.911742 L8.41982272,120.911742 Z" id="Shape"></path>
            <path d="M42.436946,121.135922 C40.355865,121.135922 38.6688155,122.843131 38.6688155,124.949081 C38.6688155,127.05503 40.355865,128.762239 42.436946,128.762239 L95.1907736,128.762239 C97.2718546,128.762239 98.9589041,127.05503 98.9589041,124.949081 C98.9589041,122.843131 97.2718546,121.135922 95.1907736,121.135922 L42.436946,121.135922 Z" id="Shape"></path>
            <path d="M111.672353,69.8107825 L121.463739,87.9232841 L121.463739,100.316048 C121.463739,102.421998 123.150788,104.129207 125.231869,104.129207 C127.31295,104.129207 129,102.421998 129,100.316048 L129,86.9699946 C129,86.3319808 128.841801,85.704165 128.539894,85.1440556 L117.235503,64.1716853 C116.575201,62.946667 115.306403,62.184466 113.927478,62.184466 L85.6664988,62.184466 C83.5854178,62.184466 81.8983683,63.8916751 81.8983683,65.9976243 C81.8983683,68.1035734 83.5854178,69.8107825 85.6664988,69.8107825 L111.672353,69.8107825 Z" id="Shape"></path>
            <path d="M8.3418614,54.6263165 L79.9363417,54.6263165 L79.9363417,98.4776362 C79.9363417,100.583585 81.6233912,102.290794 83.7044722,102.290794 C85.7855532,102.290794 87.4726027,100.583585 87.4726027,98.4776362 L87.4726027,50.8131582 C87.4726027,48.7072091 85.7855532,47 83.7044722,47 L4.57373086,47 C2.49264983,47 0.805600322,48.7072091 0.805600322,50.8131582 L0.805600322,100.384215 C0.805600322,102.490164 2.49264983,104.197374 4.57373086,104.197374 C6.6548119,104.197374 8.3418614,102.490164 8.3418614,100.384215 L8.3418614,54.6263165 Z" id="Shape"></path>
        </g>
    </g>
</svg>