<?xml version="1.0" encoding="UTF-8"?>
<svg width="47px" height="54px" viewBox="0 0 47 54" version="1.1" xmlns="http://www.w3.org/2000/svg" xmlns:xlink="http://www.w3.org/1999/xlink">
    <!-- Generator: Sketch 42 (36781) - http://www.bohemiancoding.com/sketch -->
    <title>Combined Shape</title>
    <desc>Created with Sketch.</desc>
    <defs></defs>
    <g id="Page-1" stroke="none" stroke-width="1" fill="none" fill-rule="evenodd">
        <g id="Desktop" transform="translate(-715.000000, -132.000000)" fill="#0E80FF">
            <path d="M733.627764,178.664836 C722.987163,176.413167 715,166.935859 715,155.586207 C715,142.559905 725.521308,132 738.5,132 C751.478692,132 762,142.559905 762,155.586207 C762,166.935859 754.012837,176.413167 743.372236,178.664836 L738.5,186 L733.627764,178.664836 Z M738.5,171.310345 C747.152461,171.310345 754.166667,164.270408 754.166667,155.586207 C754.166667,146.902005 747.152461,139.862069 738.5,139.862069 C729.847539,139.862069 722.833333,146.902005 722.833333,155.586207 C722.833333,164.270408 729.847539,171.310345 738.5,171.310345 Z" id="Combined-Shape"></path>
        </g>
    </g>
</svg>